# xmcd
#
# Track frame offsets:
#	150
#	15944
#	28788
#	40422
#	60280
#	76881
#	87880
#	103630
#	121901
#	135078
#	150763
#
# Disc length: 2235 seconds
#
# Revision: 0
# Processed by: cddbd v1.5.2PL0 Copyright (c) Steve Scherf et al.
# Submitted via: EasyCDDAExtractor 10.0.2.1
#
DISCID=6a08b90b
DTITLE=Ernie Ashworth - Songs Of Faith
DYEAR=1999
DGENRE=Gospel
TTITLE0=The Far Side Banks Of Jordan
TTITLE1=I See A Bridge
TTITLE2=Sunday Christian
TTITLE3=Every Time The Cross Crosses My Mind
TTITLE4=Forgive Me God
TTITLE5=Jesus Juice
TTITLE6=Empty Places (Father)
TTITLE7=Christmas Party
TTITLE8=What Christmas Meant To Me
TTITLE9=Empty Places (Mama)
TTITLE10=Lightning Strikes Twice
EXTD=
EXTT0=
EXTT1=
EXTT2=
EXTT3=
EXTT4=
EXTT5=
EXTT6=
EXTT7=
EXTT8=
EXTT9=
EXTT10=
PLAYORDER=
